<?xml version="1.0" encoding="UTF-8" standalone="no"?>
<svg
   width="100%"
   height="100%"
   viewBox="0 0 1920 1080"
   version="1.1"
   xml:space="preserve"
   style="fill-rule:evenodd;clip-rule:evenodd;stroke-linejoin:round;stroke-miterlimit:2;"
   id="svg4670"
   sodipodi:docname="background4.svg"
   inkscape:version="1.2.2 (b0a8486541, 2022-12-01)"
   xmlns:inkscape="http://www.inkscape.org/namespaces/inkscape"
   xmlns:sodipodi="http://sodipodi.sourceforge.net/DTD/sodipodi-0.dtd"
   xmlns:xlink="http://www.w3.org/1999/xlink"
   xmlns="http://www.w3.org/2000/svg"
   xmlns:svg="http://www.w3.org/2000/svg"><defs
   id="defs4674"><linearGradient
     inkscape:collect="always"
     id="linearGradient5963"><stop
       style="stop-color:#776fff;stop-opacity:1;"
       offset="0.29696968"
       id="stop5959" /><stop
       style="stop-color:#0ca1ff;stop-opacity:1;"
       offset="1"
       id="stop5961" /></linearGradient><radialGradient
     inkscape:collect="always"
     xlink:href="#linearGradient5963"
     id="radialGradient5965"
     cx="2958.1899"
     cy="874.32501"
     fx="2958.1899"
     fy="874.32501"
     r="67.190002"
     gradientUnits="userSpaceOnUse" /></defs><sodipodi:namedview
   id="namedview4672"
   pagecolor="#505050"
   bordercolor="#ffffff"
   borderopacity="1"
   inkscape:showpageshadow="0"
   inkscape:pageopacity="0"
   inkscape:pagecheckerboard="1"
   inkscape:deskcolor="#505050"
   showgrid="false"
   inkscape:zoom="2.3420364"
   inkscape:cx="925.90363"
   inkscape:cy="897.50954"
   inkscape:window-width="1463"
   inkscape:window-height="841"
   inkscape:window-x="0"
   inkscape:window-y="0"
   inkscape:window-maximized="1"
   inkscape:current-layer="g4665" />
    <g
   transform="matrix(1,0,0,1,-3483.85,-1587.73)"
   id="g4668">
        <g
   id="ArtBoard1"
   transform="matrix(0.906144,0,0,0.855338,1380.29,1521.23)">
            <rect
   x="2321.45"
   y="77.755"
   width="2118.87"
   height="1262.66"
   style="fill:#7cccff;fill-opacity:1"
   id="rect4628" />
            <clipPath
   id="_clip1">
                <rect
   x="2321.45"
   y="77.755"
   width="2118.87"
   height="1262.66"
   id="rect4630" />
            </clipPath>
            <g
   clip-path="url(#_clip1)"
   id="g4665">
                <g
   transform="matrix(5.35533,0,0,1.65915,1494.96,635.913)"
   id="g4635">
                    <circle
   cx="348.097"
   cy="345.407"
   r="236.323"
   style="fill:#52bcff;fill-opacity:1"
   id="circle4633" />
                </g>
                <g
   id="g4659">
                    <g
   transform="matrix(1.40985,0,0,1.4936,-788.348,-266.213)"
   id="g4639">
                        <circle
   cx="2958.19"
   cy="874.325"
   r="67.19"
   style="fill:#0091ed;fill-opacity:1"
   id="circle4637" />
                    </g>
                    <g
   transform="matrix(1.22293,0,0,1.29557,-235.397,-93.0747)"
   id="g4643">
                        <circle
   cx="2958.19"
   cy="874.325"
   r="67.19"
   style="fill:url(#radialGradient5965);fill-opacity:1"
   id="circle4641" />
                    </g>
                    <g
   transform="matrix(1,0,0,1,10.9146,-7.10543e-15)"
   id="g4657">
                        <g
   transform="matrix(0.488418,0,0,0.320696,1924.82,857.375)"
   id="g4647"
   style="fill:#0078c4;fill-opacity:1">
                            <rect
   x="2784.95"
   y="860.174"
   width="343.717"
   height="68.288"
   style="fill:#35b1ff;fill-opacity:1"
   id="rect4645" />
                        </g>
                        <g
   transform="matrix(0.604328,0,0,0.320696,1583.58,874.815)"
   id="g4651"
   style="fill:#0ca2ff;fill-opacity:1">
                            <rect
   x="2784.95"
   y="860.174"
   width="343.717"
   height="68.288"
   style="fill:#0ca2ff;fill-opacity:1"
   id="rect4649" />
                        </g>
                        <g
   transform="matrix(0.712575,0,0,0.320696,1263.02,893.891)"
   id="g4655"
   style="fill:#0091ed;fill-opacity:1">
                            <rect
   x="2784.95"
   y="860.174"
   width="343.717"
   height="68.288"
   style="fill:#0091ed;fill-opacity:1"
   id="rect4653" />
                        </g>
                    </g>
                </g>
                <g
   transform="matrix(4.71103,0,0,1.01375,-1116.93,624.809)"
   id="g4663"
   style="fill:#7cccff;fill-opacity:1">
                    <path
   d="M707.958,700.755C756.379,614.43 848.794,556.034 954.74,556.034C1060.69,556.034 1153.1,614.43 1201.52,700.755C1153.1,787.08 1060.69,845.475 954.74,845.475C848.794,845.475 756.379,787.08 707.958,700.755Z"
   style="fill:#7cccff;fill-opacity:1"
   id="path4661" />
                </g>
            </g>
        </g>
    </g>
</svg>
