<?xml version="1.0" encoding="UTF-8" standalone="no"?>
<svg
   width="1428"
   height="965"
   viewBox="0 0 1428 965"
   fill="none"
   version="1.1"
   id="svg39828"
   sodipodi:docname="background.svg"
   inkscape:version="1.2.2 (b0a8486541, 2022-12-01)"
   xmlns:inkscape="http://www.inkscape.org/namespaces/inkscape"
   xmlns:sodipodi="http://sodipodi.sourceforge.net/DTD/sodipodi-0.dtd"
   xmlns="http://www.w3.org/2000/svg"
   xmlns:svg="http://www.w3.org/2000/svg">
  <sodipodi:namedview
     id="namedview39830"
     pagecolor="#505050"
     bordercolor="#ffffff"
     borderopacity="1"
     inkscape:showpageshadow="0"
     inkscape:pageopacity="0"
     inkscape:pagecheckerboard="1"
     inkscape:deskcolor="#505050"
     showgrid="false"
     inkscape:zoom="0.42360574"
     inkscape:cx="636.20478"
     inkscape:cy="509.9081"
     inkscape:window-width="1463"
     inkscape:window-height="841"
     inkscape:window-x="0"
     inkscape:window-y="0"
     inkscape:window-maximized="1"
     inkscape:current-layer="svg39828" />
  <path
     id="path39609"
     style="color:#000000;fill:url(#paint0_linear);stroke-linecap:round;-inkscape-stroke:none"
     d="M 970.8457 0 A 3 3 0 0 0 967.85156 3.0058594 L 967.91016 35.410156 A 3 3 0 0 0 967.85156 35.552734 L 968.63086 476.52539 A 3 3 0 0 0 971.63672 479.51953 A 3 3 0 0 0 974.63086 476.51562 L 974.55469 432.97656 A 3 3 0 0 0 974.63086 432.48242 L 973.85156 2.9941406 A 3 3 0 0 0 970.8457 0 z M 221.10156 8.9335938 A 3 3 0 0 0 218.10742 11.939453 L 218.88672 454.18945 A 3 3 0 0 0 221.89258 457.18359 A 3 3 0 0 0 224.88672 454.17773 L 224.10742 11.929688 A 3 3 0 0 0 221.10156 8.9335938 z M 306.13867 47.863281 A 3 3 0 0 0 303.14648 50.871094 L 303.92578 344.42773 A 3 3 0 0 0 306.93359 347.41992 A 3 3 0 0 0 309.92578 344.41211 L 309.14648 50.855469 A 3 3 0 0 0 306.13867 47.863281 z M 624.45117 90.619141 A 3 3 0 0 0 621.45508 93.625 L 622.23438 607.34961 A 3 3 0 0 0 625.24023 610.3457 A 3 3 0 0 0 628.23438 607.33984 L 627.45508 93.615234 A 3 3 0 0 0 624.45117 90.619141 z M 4.9882812 136.48242 A 5 5 0 0 0 0 141.49219 L 0.77929688 503.33398 A 5 5 0 0 0 5.7910156 508.32227 A 5 5 0 0 0 10.779297 503.3125 L 10 141.4707 A 5 5 0 0 0 4.9882812 136.48242 z M 1286.8145 158.54297 A 4 4 0 0 0 1282.8203 162.54883 L 1283.5996 676.91016 A 4 4 0 0 0 1287.6055 680.9043 A 4 4 0 0 0 1291.5996 676.89844 L 1290.8203 162.53516 A 4 4 0 0 0 1286.8145 158.54297 z M 314.7207 175.77148 A 4 4 0 0 0 310.72852 179.7793 L 311.50781 666.0625 A 4 4 0 0 0 315.51367 670.05664 A 4 4 0 0 0 319.50781 666.04883 L 318.72852 179.76562 A 4 4 0 0 0 314.7207 175.77148 z M 1393.6934 179.24023 A 5 5 0 0 0 1388.6992 184.24805 L 1389.2246 530.3125 A 5 5 0 0 0 1386.668 529.59375 A 5 5 0 0 0 1381.6797 534.60742 L 1382.0898 699.26562 A 5 5 0 0 0 1378.8984 698.07031 A 5 5 0 0 0 1373.8809 703.05273 L 1373.0996 925.77344 A 5 5 0 0 0 1378.082 930.78906 A 5 5 0 0 0 1383.0996 925.80664 L 1383.3633 850.66992 A 5 5 0 0 0 1387.4727 852.93359 A 5 5 0 0 0 1392.4609 847.92188 L 1392.0977 701.97852 A 5 5 0 0 0 1394.4883 702.96484 A 5 5 0 0 0 1399.4805 697.95703 L 1398.6992 184.23242 A 5 5 0 0 0 1393.6934 179.24023 z M 538.62891 181.79297 A 5 5 0 0 0 533.63672 186.80078 L 534.41602 671.80859 A 5 5 0 0 0 539.42383 676.80078 A 5 5 0 0 0 544.41602 671.79102 L 543.63672 186.7832 A 5 5 0 0 0 538.62891 181.79297 z M 1216.5957 255.9043 A 3 3 0 0 0 1213.5996 258.91016 L 1214.3809 720.30469 A 3 3 0 0 0 1217.3848 723.30078 A 3 3 0 0 0 1220.3809 720.29492 L 1219.5996 258.90039 A 3 3 0 0 0 1216.5957 255.9043 z M 1011.4102 262.20117 A 5 5 0 0 0 1006.4199 267.21094 L 1007.1992 629.05273 A 5 5 0 0 0 1012.2109 634.04102 A 5 5 0 0 0 1017.1992 629.03125 L 1016.4199 267.18945 A 5 5 0 0 0 1011.4102 262.20117 z M 441.125 295.38672 A 5 5 0 0 0 436.11523 300.37695 L 435.33594 720.29102 A 5 5 0 0 0 440.32617 725.30078 A 5 5 0 0 0 445.33594 720.30859 L 446.11523 300.39453 A 5 5 0 0 0 441.125 295.38672 z M 846.01758 296.10938 A 3 3 0 0 0 843.02344 299.11523 L 843.80469 706.9043 A 3 3 0 0 0 846.81055 709.89844 A 3 3 0 0 0 849.80469 706.89258 L 849.02344 299.10352 A 3 3 0 0 0 846.01758 296.10938 z M 1257.9434 298.30078 A 4 4 0 0 0 1253.9492 302.30664 L 1254.7305 780.93164 A 4 4 0 0 0 1258.7363 784.92578 A 4 4 0 0 0 1262.7305 780.91992 L 1261.9492 302.29492 A 4 4 0 0 0 1257.9434 298.30078 z M 331.88281 336.95117 A 3 3 0 0 0 328.89062 339.95898 L 329.67188 643.08984 A 3 3 0 0 0 332.67969 646.08203 A 3 3 0 0 0 335.67188 643.07422 L 334.89062 339.94336 A 3 3 0 0 0 331.88281 336.95117 z M 22.933594 367.49805 A 5 5 0 0 0 17.943359 372.50977 L 18.724609 719.03516 A 5 5 0 0 0 23.736328 724.02344 A 5 5 0 0 0 28.724609 719.01367 L 27.943359 372.48828 A 5 5 0 0 0 22.933594 367.49805 z M 457.50781 417.36133 A 3 3 0 0 0 454.49805 420.35156 L 453.71875 666.68359 A 3 3 0 0 0 456.70898 669.69336 A 3 3 0 0 0 459.71875 666.70312 L 460.49805 420.37109 A 3 3 0 0 0 457.50781 417.36133 z M 1426.4551 430.03906 A 5 5 0 0 0 1421.4707 435.05469 L 1421.8203 547.38672 A 4 4 0 0 0 1418.5703 551.17383 L 1417.7891 802.61133 A 4 4 0 0 0 1421.7773 806.62305 A 4 4 0 0 0 1425.7891 802.63672 L 1426.1367 690.54102 A 5 5 0 0 0 1427.2656 690.83984 A 5 5 0 0 0 1432.25 685.82422 L 1431.4707 435.02344 A 5 5 0 0 0 1426.4551 430.03906 z M 770.35742 446.35547 A 4 4 0 0 0 766.34766 450.3457 L 765.56641 757.94141 A 4 4 0 0 0 769.55664 761.95117 A 4 4 0 0 0 773.56641 757.96289 L 774.34766 450.36523 A 4 4 0 0 0 770.35742 446.35547 z M 1332.0645 462.0332 A 3 3 0 0 0 1329.0703 465.03906 L 1329.8496 849.2168 A 3 3 0 0 0 1332.8555 852.21094 A 3 3 0 0 0 1335.8496 849.20312 L 1335.0703 465.02734 A 3 3 0 0 0 1332.0645 462.0332 z M 1322.7168 473.1582 A 4 4 0 0 0 1318.7109 477.15039 L 1317.9297 931.52734 A 4 4 0 0 0 1321.9238 935.5332 A 4 4 0 0 0 1325.9297 931.54102 L 1326.7109 477.16406 A 4 4 0 0 0 1322.7168 473.1582 z M 792.99219 486.19727 A 5 5 0 0 0 787.97266 491.17773 L 787.19141 676.88477 A 5 5 0 0 0 792.17188 681.9043 A 5 5 0 0 0 797.19141 676.92578 L 797.97266 491.21875 A 5 5 0 0 0 792.99219 486.19727 z M 398.21094 492.02734 A 3 3 0 0 0 395.20508 495.02148 L 394.42578 964.71289 A 3 3 0 0 0 397.42188 967.71875 A 3 3 0 0 0 400.42578 964.72266 L 401.20508 495.03125 A 3 3 0 0 0 398.21094 492.02734 z M 1075.3809 502.51367 A 4 4 0 0 0 1071.3906 506.52344 L 1072.1699 850.49609 A 4 4 0 0 0 1076.1797 854.48633 A 4 4 0 0 0 1080.1699 850.47852 L 1079.3906 506.50586 A 4 4 0 0 0 1075.3809 502.51367 z M 663.45312 580.73242 A 3 3 0 0 0 660.46289 583.74023 L 661.24414 846.66602 A 3 3 0 0 0 664.25195 849.6582 A 3 3 0 0 0 667.24414 846.64844 L 666.46289 583.72266 A 3 3 0 0 0 663.45312 580.73242 z M 1135.4863 582.28516 A 4 4 0 0 0 1131.4707 586.26953 L 1130.6895 789.20703 A 4 4 0 0 0 1134.6738 793.22266 A 4 4 0 0 0 1138.6895 789.23828 L 1139.4707 586.30078 A 4 4 0 0 0 1135.4863 582.28516 z M 942.00391 665.52344 A 5 5 0 0 0 936.98438 670.50391 L 936.20312 867.69727 A 5 5 0 0 0 941.18359 872.7168 A 5 5 0 0 0 946.20312 867.73633 L 946.98438 670.54297 A 5 5 0 0 0 942.00391 665.52344 z " />
  <defs
     id="defs39826">
    <linearGradient
       id="paint0_linear"
       x1="1378.1"
       y1="925.79"
       x2="1378.1"
       y2="703.07"
       gradientUnits="userSpaceOnUse">
      <stop
         stop-color="#681B66"
         stop-opacity="0"
         id="stop39671"
         style="stop-color:#7299d9" />
      <stop
         offset="1"
         stop-color="#681B66"
         id="stop39673"
         style="stop-color:#7299d9" />
    </linearGradient>
    <linearGradient
       id="paint1_linear"
       x1="1286.82"
       y1="162.542"
       x2="1286.82"
       y2="676.905"
       gradientUnits="userSpaceOnUse">
      <stop
         stop-color="#681B66"
         stop-opacity="0"
         id="stop39676" />
      <stop
         offset="1"
         stop-color="#681B66"
         id="stop39678" />
    </linearGradient>
    <linearGradient
       id="paint2_linear"
       x1="970.851"
       y1="432.487"
       x2="970.851"
       y2="3"
       gradientUnits="userSpaceOnUse">
      <stop
         stop-color="#681B66"
         stop-opacity="0"
         id="stop39681" />
      <stop
         offset="1"
         stop-color="#681B66"
         id="stop39683" />
    </linearGradient>
    <linearGradient
       id="paint3_linear"
       x1="1216.6"
       y1="720.3"
       x2="1216.6"
       y2="258.905"
       gradientUnits="userSpaceOnUse">
      <stop
         stop-color="#681B66"
         stop-opacity="0"
         id="stop39686" />
      <stop
         offset="1"
         stop-color="#681B66"
         id="stop39688" />
    </linearGradient>
    <linearGradient
       id="paint4_linear"
       x1="1075.39"
       y1="506.514"
       x2="1075.39"
       y2="850.487"
       gradientUnits="userSpaceOnUse">
      <stop
         stop-color="#681B66"
         stop-opacity="0"
         id="stop39691" />
      <stop
         offset="1"
         stop-color="#681B66"
         id="stop39693" />
    </linearGradient>
    <linearGradient
       id="paint5_linear"
       x1="306.146"
       y1="50.8625"
       x2="306.146"
       y2="344.42"
       gradientUnits="userSpaceOnUse">
      <stop
         stop-color="#681B66"
         stop-opacity="0"
         id="stop39696" />
      <stop
         offset="1"
         stop-color="#681B66"
         id="stop39698" />
    </linearGradient>
    <linearGradient
       id="paint6_linear"
       x1="22.944"
       y1="372.499"
       x2="22.944"
       y2="719.024"
       gradientUnits="userSpaceOnUse">
      <stop
         stop-color="#681B66"
         stop-opacity="0"
         id="stop39701" />
      <stop
         offset="1"
         stop-color="#681B66"
         id="stop39703" />
    </linearGradient>
    <linearGradient
       id="paint7_linear"
       x1="1134.69"
       y1="789.222"
       x2="1134.69"
       y2="586.285"
       gradientUnits="userSpaceOnUse">
      <stop
         stop-color="#681B66"
         stop-opacity="0"
         id="stop39706" />
      <stop
         offset="1"
         stop-color="#681B66"
         id="stop39708" />
    </linearGradient>
    <linearGradient
       id="paint8_linear"
       x1="1421.79"
       y1="551.186"
       x2="1421.79"
       y2="802.624"
       gradientUnits="userSpaceOnUse">
      <stop
         stop-color="#681B66"
         stop-opacity="0"
         id="stop39711" />
      <stop
         offset="1"
         stop-color="#681B66"
         id="stop39713" />
    </linearGradient>
    <linearGradient
       id="paint9_linear"
       x1="1393.7"
       y1="697.964"
       x2="1393.7"
       y2="184.24"
       gradientUnits="userSpaceOnUse">
      <stop
         stop-color="#681B66"
         stop-opacity="0"
         id="stop39716" />
      <stop
         offset="1"
         stop-color="#681B66"
         id="stop39718" />
    </linearGradient>
    <linearGradient
       id="paint10_linear"
       x1="5"
       y1="141.482"
       x2="5"
       y2="503.323"
       gradientUnits="userSpaceOnUse">
      <stop
         stop-color="#681B66"
         stop-opacity="0"
         id="stop39721" />
      <stop
         offset="1"
         stop-color="#681B66"
         id="stop39723" />
    </linearGradient>
    <linearGradient
       id="paint11_linear"
       x1="970.851"
       y1="35.5465"
       x2="970.851"
       y2="476.52"
       gradientUnits="userSpaceOnUse">
      <stop
         stop-color="#681B66"
         stop-opacity="0"
         id="stop39726" />
      <stop
         offset="1"
         stop-color="#681B66"
         id="stop39728" />
    </linearGradient>
    <linearGradient
       id="paint12_linear"
       x1="1386.68"
       y1="534.594"
       x2="1386.68"
       y2="847.934"
       gradientUnits="userSpaceOnUse">
      <stop
         stop-color="#681B66"
         stop-opacity="0"
         id="stop39731" />
      <stop
         offset="1"
         stop-color="#681B66"
         id="stop39733" />
    </linearGradient>
    <linearGradient
       id="paint13_linear"
       x1="792.192"
       y1="491.198"
       x2="792.192"
       y2="676.905"
       gradientUnits="userSpaceOnUse">
      <stop
         stop-color="#681B66"
         stop-opacity="0"
         id="stop39736" />
      <stop
         offset="1"
         stop-color="#681B66"
         id="stop39738" />
    </linearGradient>
    <linearGradient
       id="paint14_linear"
       x1="846.023"
       y1="299.11"
       x2="846.023"
       y2="706.899"
       gradientUnits="userSpaceOnUse">
      <stop
         stop-color="#681B66"
         stop-opacity="0"
         id="stop39741" />
      <stop
         offset="1"
         stop-color="#681B66"
         id="stop39743" />
    </linearGradient>
    <linearGradient
       id="paint15_linear"
       x1="663.463"
       y1="583.732"
       x2="663.463"
       y2="846.658"
       gradientUnits="userSpaceOnUse">
      <stop
         stop-color="#681B66"
         stop-opacity="0"
         id="stop39746" />
      <stop
         offset="1"
         stop-color="#681B66"
         id="stop39748" />
    </linearGradient>
    <linearGradient
       id="paint16_linear"
       x1="331.891"
       y1="339.952"
       x2="331.891"
       y2="643.082"
       gradientUnits="userSpaceOnUse">
      <stop
         stop-color="#681B66"
         stop-opacity="0"
         id="stop39751" />
      <stop
         offset="1"
         stop-color="#681B66"
         id="stop39753" />
    </linearGradient>
    <linearGradient
       id="paint17_linear"
       x1="397.426"
       y1="964.718"
       x2="397.426"
       y2="495.027"
       gradientUnits="userSpaceOnUse">
      <stop
         stop-color="#681B66"
         stop-opacity="0"
         id="stop39756" />
      <stop
         offset="1"
         stop-color="#681B66"
         id="stop39758" />
    </linearGradient>
    <linearGradient
       id="paint18_linear"
       x1="624.455"
       y1="607.345"
       x2="624.455"
       y2="93.6198"
       gradientUnits="userSpaceOnUse">
      <stop
         stop-color="#681B66"
         stop-opacity="0"
         id="stop39761" />
      <stop
         offset="1"
         stop-color="#681B66"
         id="stop39763" />
    </linearGradient>
    <linearGradient
       id="paint19_linear"
       x1="538.636"
       y1="671.8"
       x2="538.636"
       y2="186.792"
       gradientUnits="userSpaceOnUse">
      <stop
         stop-color="#681B66"
         stop-opacity="0"
         id="stop39766" />
      <stop
         offset="1"
         stop-color="#681B66"
         id="stop39768" />
    </linearGradient>
    <linearGradient
       id="paint20_linear"
       x1="440.335"
       y1="300.386"
       x2="440.335"
       y2="720.3"
       gradientUnits="userSpaceOnUse">
      <stop
         stop-color="#681B66"
         stop-opacity="0"
         id="stop39771" />
      <stop
         offset="1"
         stop-color="#681B66"
         id="stop39773" />
    </linearGradient>
    <linearGradient
       id="paint21_linear"
       x1="314.728"
       y1="666.056"
       x2="314.728"
       y2="179.772"
       gradientUnits="userSpaceOnUse">
      <stop
         stop-color="#681B66"
         stop-opacity="0"
         id="stop39776" />
      <stop
         offset="1"
         stop-color="#681B66"
         id="stop39778" />
    </linearGradient>
    <linearGradient
       id="paint22_linear"
       x1="1426.47"
       y1="435.039"
       x2="1426.47"
       y2="685.839"
       gradientUnits="userSpaceOnUse">
      <stop
         stop-color="#681B66"
         stop-opacity="0"
         id="stop39781" />
      <stop
         offset="1"
         stop-color="#681B66"
         id="stop39783" />
    </linearGradient>
    <linearGradient
       id="paint23_linear"
       x1="1257.95"
       y1="780.926"
       x2="1257.95"
       y2="302.301"
       gradientUnits="userSpaceOnUse">
      <stop
         stop-color="#681B66"
         stop-opacity="0"
         id="stop39786" />
      <stop
         offset="1"
         stop-color="#681B66"
         id="stop39788" />
    </linearGradient>
    <linearGradient
       id="paint24_linear"
       x1="221.107"
       y1="454.184"
       x2="221.107"
       y2="11.9343"
       gradientUnits="userSpaceOnUse">
      <stop
         stop-color="#681B66"
         stop-opacity="0"
         id="stop39791" />
      <stop
         offset="1"
         stop-color="#681B66"
         id="stop39793" />
    </linearGradient>
    <linearGradient
       id="paint25_linear"
       x1="456.719"
       y1="666.694"
       x2="456.719"
       y2="420.362"
       gradientUnits="userSpaceOnUse">
      <stop
         stop-color="#681B66"
         stop-opacity="0"
         id="stop39796" />
      <stop
         offset="1"
         stop-color="#681B66"
         id="stop39798" />
    </linearGradient>
    <linearGradient
       id="paint26_linear"
       x1="1321.93"
       y1="931.534"
       x2="1321.93"
       y2="477.158"
       gradientUnits="userSpaceOnUse">
      <stop
         stop-color="#681B66"
         stop-opacity="0"
         id="stop39801" />
      <stop
         offset="1"
         stop-color="#681B66"
         id="stop39803" />
    </linearGradient>
    <linearGradient
       id="paint27_linear"
       x1="1332.07"
       y1="465.033"
       x2="1332.07"
       y2="849.21"
       gradientUnits="userSpaceOnUse">
      <stop
         stop-color="#681B66"
         stop-opacity="0"
         id="stop39806" />
      <stop
         offset="1"
         stop-color="#681B66"
         id="stop39808" />
    </linearGradient>
    <linearGradient
       id="paint28_linear"
       x1="1011.42"
       y1="629.042"
       x2="1011.42"
       y2="267.201"
       gradientUnits="userSpaceOnUse">
      <stop
         stop-color="#681B66"
         stop-opacity="0"
         id="stop39811" />
      <stop
         offset="1"
         stop-color="#681B66"
         id="stop39813" />
    </linearGradient>
    <linearGradient
       id="paint29_linear"
       x1="769.567"
       y1="757.952"
       x2="769.567"
       y2="450.355"
       gradientUnits="userSpaceOnUse">
      <stop
         stop-color="#681B66"
         stop-opacity="0"
         id="stop39816" />
      <stop
         offset="1"
         stop-color="#681B66"
         id="stop39818" />
    </linearGradient>
    <linearGradient
       id="paint30_linear"
       x1="941.204"
       y1="670.523"
       x2="941.204"
       y2="867.717"
       gradientUnits="userSpaceOnUse">
      <stop
         stop-color="#681B66"
         stop-opacity="0"
         id="stop39821" />
      <stop
         offset="1"
         stop-color="#681B66"
         id="stop39823" />
    </linearGradient>
  </defs>
</svg>
