<?xml version="1.0" encoding="UTF-8" standalone="no"?>
<svg
   width="100%"
   height="100%"
   viewBox="0 0 1920 1080"
   version="1.1"
   xml:space="preserve"
   style="fill-rule:evenodd;clip-rule:evenodd;stroke-linejoin:round;stroke-miterlimit:2;"
   id="svg3719"
   sodipodi:docname="background3.svg"
   inkscape:version="1.2.2 (b0a8486541, 2022-12-01)"
   xmlns:inkscape="http://www.inkscape.org/namespaces/inkscape"
   xmlns:sodipodi="http://sodipodi.sourceforge.net/DTD/sodipodi-0.dtd"
   xmlns="http://www.w3.org/2000/svg"
   xmlns:svg="http://www.w3.org/2000/svg"><defs
   id="defs3723"><inkscape:perspective
     sodipodi:type="inkscape:persp3d"
     inkscape:vp_x="0 : 540 : 1"
     inkscape:vp_y="0 : 1000 : 0"
     inkscape:vp_z="1920 : 540 : 1"
     inkscape:persp3d-origin="960 : 360 : 1"
     id="perspective12250" /></defs><sodipodi:namedview
   id="namedview3721"
   pagecolor="#505050"
   bordercolor="#ffffff"
   borderopacity="1"
   inkscape:showpageshadow="0"
   inkscape:pageopacity="0"
   inkscape:pagecheckerboard="1"
   inkscape:deskcolor="#505050"
   showgrid="false"
   inkscape:zoom="0.51873968"
   inkscape:cx="980.26046"
   inkscape:cy="601.45774"
   inkscape:window-width="1463"
   inkscape:window-height="841"
   inkscape:window-x="0"
   inkscape:window-y="0"
   inkscape:window-maximized="1"
   inkscape:current-layer="ArtBoard1" />
    <g
   transform="matrix(1,0,0,1,-1445.43,-1581.07)"
   id="g3717">
        <g
   id="ArtBoard1"
   transform="matrix(0.906144,0,0,0.855338,-658.135,1514.56)">
            <rect
   x="2321.45"
   y="77.755"
   width="2118.87"
   height="1262.66"
   style="fill:#7cccff;fill-opacity:1"
   id="rect3690" />
            <g
   transform="matrix(1.3204,0,0,1.39883,2915.45,252.483)"
   id="g3694">
                <circle
   cx="348.097"
   cy="345.407"
   r="236.323"
   style="fill:#52bcff;fill-opacity:1"
   id="circle3692" />
            </g>
            <g
   transform="matrix(0.380734,0,0,0.403349,3170.2,543.104)"
   id="g3698">
                <circle
   cx="348.097"
   cy="345.407"
   r="236.323"
   style="fill:#18a6ff;fill-opacity:1"
   id="circle3696" />
            </g>
            <g
   transform="matrix(1.10358,0,0,1.16913,2321.45,77.7549)"
   id="g3702">
                <path
   d="M707.958,700.755C756.379,614.43 848.794,556.034 954.74,556.034C1060.69,556.034 1153.1,614.43 1201.52,700.755C1153.1,787.08 1060.69,845.475 954.74,845.475C848.794,845.475 756.379,787.08 707.958,700.755Z"
   style="fill:#35b1ff;fill-opacity:1"
   id="path3700" />
            </g>
            <g
   transform="matrix(0.419426,0,0,0.444339,2823.63,379.596)"
   id="g3706">
                <circle
   cx="348.097"
   cy="345.407"
   r="236.323"
   style="fill:#52bcff;fill-opacity:1"
   id="circle3704" />
            </g>
            <g
   transform="matrix(0.233193,0,0,0.247045,3037.37,311.699)"
   id="g3710">
                <circle
   cx="348.097"
   cy="345.407"
   r="236.323"
   style="fill:#52bcff;fill-opacity:1"
   id="circle3708" />
            </g>
            <g
   transform="matrix(0.233193,0,0,0.247045,3653.61,895.512)"
   id="g3714">
                <circle
   cx="348.097"
   cy="345.407"
   r="236.323"
   style="fill:#52bcff;fill-opacity:1"
   id="circle3712" />
            </g>
        </g>
    </g>
</svg>
